# xmcd
#
# Track frame offsets: 
#        150
#        19533
#        46675
#        66634
#        83836
#        104970
#        122796
#        150633
#        162951
#        187875
#        201338
#        215416
#        232778
#
# Disc length: 3329 seconds
#
# Revision: 0
# Processed by: cddbd v1.5.2PL0 Copyright (c) Steve Scherf et al.
# Submitted via: ExactAudioCopy v1.3
#
DISCID=ad0cff0d
DTITLE=Various Artist - Battle of the Blues: Chicago vs Oakland
DYEAR=2019
DGENRE=Blues
TTITLE0=Mz Sumac - Broke Ass Man
TTITLE1=Aldwin London - Funny How Time Slips Away
TTITLE2=Freddie Roulette - Take It Easy
TTITLE3=Nat Bolden - Good Morning Mr. Blues
TTITLE4=James Newman - Hit and Run Lover
TTITLE5=Emery Williams, Jr. - Hurtin' on You
TTITLE6=Del Brown - Now That I've Gone
TTITLE7=Freddie Roulette - Red Tide
TTITLE8=Gerald Mcclendon - Cold in the Streets
TTITLE9=James Newman - Me and My Guitar
TTITLE10=Del Brown - Time Slippin' Away
TTITLE11=Country Pete McGill - Hoochie Coochie Mama
TTITLE12=Emery Williams, Jr. - Mama Don't Weep
EXTD=
EXTT0=
EXTT1=
EXTT2=
EXTT3=
EXTT4=
EXTT5=
EXTT6=
EXTT7=
EXTT8=
EXTT9=
EXTT10=
EXTT11=
EXTT12=
PLAYORDER=
